Coordinates
version=1
nRows=6
nColumns=63
inDegrees=yes

Units are S.I. units (second, meters, Newtons, ...)
If the header above contains a line with 'inDegrees', this indicates whether rotational values are in degrees (yes) or radians (no).

endheader
time	pelvis_tilt	pelvis_list	pelvis_rotation	pelvis_tx	pelvis_ty	pelvis_tz	hip_flexion_r	hip_adduction_r	hip_rotation_r	knee_angle_r	knee_angle_r_beta	ankle_angle_r	subtalar_angle_r	mtp_angle_r	hip_flexion_l	hip_adduction_l	hip_rotation_l	knee_angle_l	knee_angle_l_beta	ankle_angle_l	subtalar_angle_l	mtp_angle_l	L5_S1_Flex_Ext	L5_S1_Lat_Bending	L5_S1_axial_rotation	L4_L5_Flex_Ext	L4_L5_Lat_Bending	L4_L5_axial_rotation	L3_L4_Flex_Ext	L3_L4_Lat_Bending	L3_L4_axial_rotation	L2_L3_Flex_Ext	L2_L3_Lat_Bending	L2_L3_axial_rotation	L1_L2_Flex_Ext	L1_L2_Lat_Bending	L1_L2_axial_rotation	L1_T12_Flex_Ext	L1_T12_Lat_Bending	L1_T12_axial_rotation	Abs_r3	Abs_r2	Abs_r1	Abs_t1	Abs_t2	neck_flexion	neck_bending	neck_rotation	arm_flex_r	arm_add_r	arm_rot_r	elbow_flex_r	pro_sup_r	wrist_flex_r	wrist_dev_r	arm_flex_l	arm_add_l	arm_rot_l	elbow_flex_l	pro_sup_l	wrist_flex_l	wrist_dev_l
      4.00000000	     -1.16178374	    -20.28683754	     89.05721177	      0.00772889	      0.99704600	      0.52710907	     28.49557357	     -0.77834703	     -5.24806643	     19.70373226	      0.34389500	     26.45697671	      6.47124107	      0.00000000	     20.69585272	     -2.62251932	     -8.41181991	      4.30407748	      0.07512032	     27.03979921	     13.09164543	      0.00000000	      0.49354400	      0.19629433	      3.78735080	      0.91656057	      0.26107147	      4.02406022	      0.81084344	      0.47727005	      4.02406022	      0.56407144	      0.47727005	      3.31393195	      0.45830496	      0.40028341	      3.07722252	      0.28201104	      0.30405992	      2.84051310	      3.52533546	      2.22052078	     21.06410894	      0.00000000	      0.00000000	     28.23423021	      5.53939093	      9.00519079	    -16.48060140	    -16.36404016	     15.92508823	     97.37339166	     87.66855164	      3.14267943	      2.71243949	     -6.46025212	    -11.69445293	     36.95633087	     88.99481860	     82.81838539	     -0.51795458	      0.54137879
      4.01923077	     -1.18001126	    -19.59770513	     89.09341122	      0.00660758	      0.99746682	      0.52608964	     28.11450529	     -1.03901973	     -5.63779759	     20.53120192	      0.35833707	     27.78196734	      7.67974056	      0.00000000	     19.90755658	     -2.52686732	     -8.51960306	      4.23652770	      0.07394136	     27.31053201	     12.66560135	      0.00000000	      0.44541587	      0.19730584	      3.89272797	      0.82718181	      0.26241676	      4.13602347	      0.73177373	      0.47972941	      4.13602347	      0.50906579	      0.47972941	      3.40613698	      0.41361317	      0.40234606	      3.16284148	      0.25451063	      0.30562674	      2.91954598	      3.18156100	      2.23196308	     21.65018516	      0.00000000	      0.00000000	     28.15522321	      7.76543428	     12.02179818	    -17.77057032	    -17.00778759	     13.79295371	    102.15299568	     88.29482986	      0.90356419	      1.30455109	     -7.99016136	    -13.17465729	     35.18500342	     94.13490351	     81.01432892	      0.63569890	      5.16719225
      4.03846154	     -1.10759320	    -18.85247017	     89.34259769	      0.00524939	      0.99772509	      0.52531120	     27.68444986	     -1.23317739	     -5.86973099	     21.37880698	      0.37313057	     28.98252086	      8.19274724	      0.00000000	     19.17092565	     -2.48263147	     -8.65269640	      4.33488731	      0.07565806	     27.72884883	     12.49656727	      0.00000000	      0.39066635	      0.20950105	      3.99278820	      0.72550648	      0.27863639	      4.24233746	      0.64182575	      0.50938084	      4.24233746	      0.44649257	      0.50938084	      3.49368967	      0.36277277	      0.42721453	      3.24414041	      0.22322675	      0.32451712	      2.99459115	      2.79049069	      2.36991774	     22.20669012	      0.00000000	      0.00000000	     28.02464898	      9.74962906	     14.88782836	    -19.40575469	    -17.21678556	     10.77275151	    107.47569600	     88.53711263	     -1.97419321	      0.14008096	     -9.12485179	    -14.58995103	     33.51043100	     99.56334366	     78.60959852	      0.84246040	      9.67488672
      4.05769231	     -1.06829829	    -18.12334794	     89.64084598	      0.00413501	      0.99770332	      0.52463047	     27.35204419	     -1.39983418	     -5.81804524	     22.38329579	      0.39066221	     30.00455063	      8.08032298	      0.00000000	     18.57716782	     -2.44651538	     -8.92544655	      4.69690711	      0.08197649	     28.32168006	     12.62748500	      0.00000000	      0.33741220	      0.21321728	      4.06526255	      0.62660819	      0.28357898	      4.31934146	      0.55433450	      0.51841650	      4.31934146	      0.38562840	      0.51841650	      3.55710473	      0.31332097	      0.43479268	      3.30302582	      0.19279733	      0.33027357	      3.04894691	      2.41010158	      2.41195652	     22.60977072	      0.00000000	      0.00000000	     27.82836641	     11.43161366	     17.22667874	    -20.87708754	    -17.14021327	      7.63620867	    112.89791744	     88.56629318	     -4.66276253	     -0.55034655	    -10.16679277	    -15.87491757	     31.43971881	    105.35257827	     76.45885206	      0.49736954	     14.75698841
      4.07692308	     -1.07146937	    -17.47602038	     90.01645203	      0.00317034	      0.99742202	      0.52379738	     27.18730494	     -1.57688770	     -5.59643082	     23.56852407	      0.41134834	     30.85919741	      7.50113526	      0.00000000	     18.22500247	     -2.40448000	     -9.42297834	      5.39222610	      0.09411210	     29.16130448	     13.28954100	      0.00000000	      0.29540505	      0.20940377	      4.08099546	      0.54859672	      0.27850701	      4.33605768	      0.48532096	      0.50914433	      4.33605768	      0.33761843	      0.50914433	      3.57087103	      0.27431313	      0.42701617	      3.31580881	      0.16879445	      0.32436644	      3.06074660	      2.11004873	      2.36881732	     22.69727247	      0.00000000	      0.00000000	     27.61099224	     12.52555449	     18.77842737	    -21.88545836	    -17.01865139	      4.99233537	    118.08878609	     88.43414247	     -6.80233984	     -0.89353419	    -11.14943277	    -16.91684442	     28.89528090	    111.32079072	     74.64900159	     -0.00848023	     20.28055050
      4.09615385	     -1.02352008	    -16.87545479	     90.44483638	      0.00223911	      0.99720636	      0.52255629	     27.08481897	     -1.63678501	     -5.13466580	     24.79225500	      0.43270648	     31.49949424	      6.50070897	      0.00000000	     18.07549737	     -2.48546965	    -10.61930913	      6.44047494	      0.11240749	     30.39996339	     15.16285981	      0.00000000	      0.25870097	      0.21627047	      4.04674234	      0.48043358	      0.28763973	      4.29966373	      0.42501983	      0.52584003	      4.29966373	      0.29566934	      0.52584003	      3.54089954	      0.24022972	      0.44101875	      3.28797815	      0.14782174	      0.33500296	      3.03505675	      1.84787518	      2.44649486	     22.50676685	      0.00000000	      0.00000000	     27.48379049	     12.76991265	     19.35404149	    -22.32855816	    -17.07174184	      3.21113103	    122.82076186	     88.18770867	     -8.28358492	     -1.16713993	    -11.82610373	    -17.63989397	     26.07508198	    117.02206899	     72.06425199	      0.01407666	     25.66353018
